HIERARCHY
ROOT Hips
{
 OFFSET 0.000000 0.000000 0.000000
 CHANNELS 6 Xposition Yposition Zposition Yrotation Xrotation Zrotation
 JOINT Chest
 {
  OFFSET 0.000000 9.876134 0.000104
  CHANNELS 3 Yrotation Xrotation Zrotation
  JOINT Chest2
  {
   OFFSET 0.000000 10.876135 -0.000189
   CHANNELS 3 Yrotation Xrotation Zrotation
   JOINT Chest3
   {
    OFFSET 0.000000 9.827064 0.000000
    CHANNELS 3 Yrotation Xrotation Zrotation
    JOINT Chest4
    {
     OFFSET 0.000000 9.827064 0.000000
     CHANNELS 3 Yrotation Xrotation Zrotation
     JOINT Neck
     {
      OFFSET 0.000000 13.837563 0.000000
      CHANNELS 3 Yrotation Xrotation Zrotation
      JOINT Head
      {
       OFFSET 0.000000 9.147058 -0.000450
       CHANNELS 3 Yrotation Xrotation Zrotation
       End Site
       {
        OFFSET 0.000000 17.513052 -0.000235
       }
      }
     }
     JOINT RightCollar
     {
      OFFSET -3.007720 7.720840 0.000000
      CHANNELS 3 Yrotation Xrotation Zrotation
      JOINT RightShoulder
      {
       OFFSET -14.032537 0.000000 0.000000
       CHANNELS 3 Yrotation Xrotation Zrotation
       JOINT RightElbow
       {
        OFFSET -30.066914 0.000000 0.000000
        CHANNELS 3 Yrotation Xrotation Zrotation
        JOINT RightWrist
        {
         OFFSET -24.575722 0.000000 0.000000
         CHANNELS 3 Yrotation Xrotation Zrotation
         JOINT Prop1
         {
          OFFSET -3.508164 -1.002333 -2.004665
          CHANNELS 3 Yrotation Xrotation Zrotation
          End Site
          {
           OFFSET -75.170611 -33.091209 23.052278
          }
         }
         End Site
         {
          OFFSET -18.342688 0.000000 0.000000
         }
        }
       }
      }
     }
     JOINT LeftCollar
     {
      OFFSET 3.007720 7.720840 0.000000
      CHANNELS 3 Yrotation Xrotation Zrotation
      JOINT LeftShoulder
      {
       OFFSET 14.032537 0.000000 0.000000
       CHANNELS 3 Yrotation Xrotation Zrotation
       JOINT LeftElbow
       {
        OFFSET 30.066914 0.000000 0.000000
        CHANNELS 3 Yrotation Xrotation Zrotation
        JOINT LeftWrist
        {
         OFFSET 24.575722 0.000000 0.000000
         CHANNELS 3 Yrotation Xrotation Zrotation
         End Site
         {
          OFFSET 18.342688 0.000000 0.000000
         }
        }
       }
      }
     }
    }
   }
  }
 }
 JOINT RightHip
 {
  OFFSET -8.019673 -0.000511 -0.000052
  CHANNELS 3 Yrotation Xrotation Zrotation
  JOINT RightKnee
  {
   OFFSET 0.000000 -41.754946 0.000049
   CHANNELS 3 Yrotation Xrotation Zrotation
   JOINT RightAnkle
   {
    OFFSET 0.000000 -40.737371 0.000083
    CHANNELS 3 Yrotation Xrotation Zrotation
    JOINT RightToe
    {
     OFFSET 0.000000 -6.498128 14.692921
     CHANNELS 3 Yrotation Xrotation Zrotation
     End Site
     {
      OFFSET 0.000000 -1.503206 6.410308
     }
    }
   }
  }
 }
 JOINT LeftHip
 {
  OFFSET 8.019673 -0.000511 -0.000052
  CHANNELS 3 Yrotation Xrotation Zrotation
  JOINT LeftKnee
  {
   OFFSET 0.000000 -41.754946 0.000049
   CHANNELS 3 Yrotation Xrotation Zrotation
   JOINT LeftAnkle
   {
    OFFSET 0.000000 -40.737371 0.000083
    CHANNELS 3 Yrotation Xrotation Zrotation
    JOINT LeftToe
    {
     OFFSET 0.000000 -6.498128 14.692921
     CHANNELS 3 Yrotation Xrotation Zrotation
     End Site
     {
      OFFSET 0.000000 -1.503206 6.410308
     }
    }
   }
  }
 }
}
MOTION
Frames: 6
Frame Time: 0.016667
0.000000 88.808232 0.000000 0.000000 -5.826342 0.000000 0.000000 11.116423 0.000000 0.000000 -5.290081 0.000000 0.000000 0.000000 0.000000 0.000000 0.000000 0.000000 0.000000 12.665069 0.000000 0.000000 0.575450 0.000000 0.000000 0.000000 0.000000 0.000000 0.000000 0.000000 2.337306 0.000000 0.000000 -2.337306 0.000000 0.000000 0.000000 0.000000 0.000000 0.000000 0.000000 0.000000 0.000000 0.000000 0.000000 -2.337306 0.000000 0.000000 2.337306 0.000000 0.000000 0.000000 8.578828 0.000000 0.000000 1.905768 0.000000 0.000000 -4.658254 0.000000 0.000000 0.000000 0.000000 0.000000 8.578828 0.000000 0.000000 1.905768 0.000000 0.000000 -4.658254 0.000000 0.000000 0.000000 0.000000
-12.411463 89.915645 -16.857588 164.361611 -13.434659 -2.830609 -3.775713 7.369638 1.008416 -1.687076 3.251290 0.486474 -1.687076 3.251290 0.486474 -1.267558 2.437149 0.373745 -1.008834 17.726419 1.142983 -2.246787 -3.233508 2.448757 13.296742 -0.008203 5.371680 -1.706535 -14.727512 82.820331 -12.824620 -9.602680 -4.521409 -40.054342 13.330183 -3.445733 -25.333505 12.836240 -133.497935 12.162148 -3.101136 -13.402599 -6.746632 4.851706 -72.751185 -6.555948 21.913969 -0.415116 -0.295996 -1.517196 0.766976 -7.444748 16.747918 -4.078945 -3.565285 4.293821 -1.597431 19.723799 -7.057336 -1.308360 0.010404 0.107051 0.004536 -14.192538 23.948958 5.942247 6.452284 1.030363 -2.090556 15.750833 -6.464277 -6.421887 0.007382 0.038859 0.000644
-12.399730 89.918112 -16.861931 164.360282 -13.444181 -2.829807 -3.773452 7.365814 1.009043 -1.685656 3.250450 0.486589 -1.685656 3.250450 0.486589 -1.266494 2.436519 0.373821 -1.015194 17.725495 1.142738 -2.258453 -3.235041 2.450480 13.287647 0.007484 5.373424 -1.721378 -14.723022 82.818863 -12.826396 -9.546573 -4.545020 -40.040515 13.329821 -3.450346 -25.302912 12.832609 -133.494832 12.156684 -3.078609 -13.386654 -6.732218 4.842563 -72.764282 -6.547919 21.941560 -0.417161 -0.298021 -1.519987 0.772408 -7.456629 16.757175 -4.085864 -3.549836 4.292762 -1.599371 19.869781 -7.063458 -1.329379 0.012064 0.108621 0.007763 -14.164520 23.936204 5.962506 6.429333 1.053237 -2.097100 15.716610 -6.464105 -6.419982 0.006888 0.033334 -0.000333
-12.402709 89.920992 -16.863827 164.356635 -13.447530 -2.821035 -3.770336 7.357484 1.007177 -1.685096 3.247030 0.485382 -1.685096 3.247030 0.485382 -1.266066 2.433959 0.372904 -1.021851 17.728080 1.140344 -2.269847 -3.230113 2.448248 13.283452 0.030078 5.377454 -1.719785 -14.723900 82.814181 -12.837996 -9.508018 -4.567113 -40.023193 13.319410 -3.445470 -25.275823 12.836642 -133.479295 12.156772 -3.055008 -13.374503 -6.727520 4.844118 -72.767624 -6.539103 21.966551 -0.419965 -0.299512 -1.524019 0.770722 -7.473254 16.764866 -4.090052 -3.537412 4.293736 -1.599956 19.779576 -7.057958 -1.325111 0.008721 0.101800 0.005103 -14.170808 23.940475 5.950079 6.433550 1.047098 -2.088239 15.880027 -6.429582 -6.450626 0.006641 0.025569 0.002144
-12.388381 89.923408 -16.867622 164.351632 -13.447485 -2.810778 -3.767461 7.348925 1.004340 -1.684081 3.242706 0.483204 -1.684081 3.242706 0.483204 -1.265291 2.430722 0.371253 -1.027964 17.734054 1.138518 -2.280341 -3.218891 2.446792 13.270312 0.045124 5.380953 -1.702390 -14.716778 82.809755 -12.838562 -9.552555 -4.569003 -40.012601 13.331149 -3.458217 -25.275322 12.848656 -133.492094 12.154572 -3.033260 -13.358918 -6.713595 4.840117 -72.784444 -6.515784 21.994858 -0.407486 -0.297632 -1.526412 0.762286 -7.474825 16.759334 -4.106161 -3.538434 4.296052 -1.601220 19.873639 -7.061344 -1.336147 0.012265 0.102753 0.009259 -14.199488 23.958225 5.921228 6.460274 1.027896 -2.078014 15.818673 -6.433142 -6.444641 0.005132 0.023669 0.000479
-12.390580 89.925108 -16.867302 164.351732 -13.440676 -2.800960 -3.768608 7.336328 1.000209 -1.684639 3.237746 0.481520 -1.684639 3.237746 0.481520 -1.265697 2.427006 0.369980 -1.031950 17.743108 1.136306 -2.286703 -3.202027 2.443827 13.270431 0.065027 5.382100 -1.695003 -14.712201 82.809992 -12.834003 -9.597012 -4.571156 -40.010157 13.337533 -3.460070 -25.277152 12.859690 -133.490308 12.154231 -3.012103 -13.343570 -6.690214 4.839652 -72.808325 -6.494819 22.017018 -0.389808 -0.297326 -1.526937 0.756788 -7.478820 16.756748 -4.103198 -3.540728 4.299479 -1.603896 19.824947 -7.062229 -1.340565 0.009436 0.100378 0.007602 -14.213217 23.958851 5.905555 6.476670 1.022248 -2.073034 15.697643 -6.451680 -6.431003 0.005354 0.025285 -0.000839
